PathFileType	4	(X/Y/Z)	32_2_61_p1_0-290.trc
DataRate	CameraRate	NumFrames	NumMarkers	Units	OrigDataRate	OrigDataStartFrame	OrigNumFrames
59.0	59.0	5	27	m	59.0	36	291
Frame#	Time	RHip			RKnee			RAnkle			RBigToe			RSmallToe			RHeel			LHip			LKnee			LAnkle			LBigToe			LSmallToe			LHeel			Neck			Head			Nose			RShoulder			RElbow			RWrist			RThumb			RIndex			RPinky			LShoulder			LElbow			LWrist			LThumb			LIndex			LPinky			
		X1	Y1	Z1	X2	Y2	Z2	X3	Y3	Z3	X4	Y4	Z4	X5	Y5	Z5	X6	Y6	Z6	X7	Y7	Z7	X8	Y8	Z8	X9	Y9	Z9	X10	Y10	Z10	X11	Y11	Z11	X12	Y12	Z12	X13	Y13	Z13	X14	Y14	Z14	X15	Y15	Z15	X16	Y16	Z16	X17	Y17	Z17	X18	Y18	Z18	X19	Y19	Z19	X20	Y20	Z20	X21	Y21	Z21	X22	Y22	Z22	X23	Y23	Z23	X24	Y24	Z24	X25	Y25	Z25	X26	Y26	Z26	X27	Y27	Z27	
36	0.6101694915254238	0.32768187055931436	0.445091786930458	1.0493474338331465	0.3271798416208728	0.4931404086746295	1.5042306019455502	0.3279689590068569	0.5406368639626077	1.931836310757638	0.31855528294019175	0.36465437754280666	1.9393625507979686	0.3812248015032561	0.3412237985027164	1.9142408030482625	0.3071603464380543	0.616824421638366	2.014836171202646	0.1237722591065219	0.47752190734279026	1.0659344195077305	0.12890121932247986	0.5123719536306152	1.5053007842237813	0.11889359853372189	0.5156167561289076	1.9437037502835635	0.14198074994342386	0.3144605917724643	1.9131986686984703	0.08152501688284716	0.3774667964958994	1.9425537559434412	0.12638419271076268	0.5529212660294925	1.9973002813269551	0.22141865571035194	0.48035857754730904	0.5216923603512206	0.2058821640814695	0.42536693481852633	0.2945322477599969	0.19869802055942215	0.3584934126280585	0.40100265646682753	0.3726742522177746	0.4548687249041842	0.5964765436423064	0.4345511629444071	0.5075437212018322	0.8751246010070034	0.5093065764794377	0.4024033493404854	1.0785174828135748	0.4822165251899436	0.3002696565518963	1.1792036426107027	0.5186925014428614	0.2854127906746161	1.189886416439521	0.5239005822716745	0.4150221573337457	1.2225105533846934	0.07336825333317405	0.4630604243534297	0.6105977280628987	-0.001144102522615622	0.5193537512363702	0.8612668456521524	-0.07149190557850146	0.42935617033305296	1.062325902561377	-0.05064523676906807	0.3641859105547486	1.1553662643720257	-0.07944828328480529	0.3267918474993871	1.1584794148599586	-0.11056358384093254	0.4206395211839282	1.1876680973281886
37	0.6271186440677966	0.32787592495876444	0.4454397860965402	1.0495704642688042	0.331143664648669	0.5045140016942491	1.5098367334759724	0.3279673523273035	0.5403632477252032	1.9315085266346568	0.3151096581172677	0.35382100372234326	1.9318985251967355	0.3811882032414457	0.34115083829990517	1.914093806618337	0.30708894525668523	0.6162790095268786	2.0144472786028813	0.12440937490411563	0.4789451761142798	1.0703997755614452	0.12812921098093263	0.5112094381444735	1.4999421200956087	0.11878185311233794	0.5158196980549099	1.9438652620681074	0.1418414363431872	0.314424815490916	1.9129591740489984	0.08138634713868902	0.37790418363619815	1.9426284927680326	0.12213551524633655	0.5668663688635837	2.005661413838592	0.21684459785891586	0.4927019300122628	0.5271365830915911	0.20721367999364074	0.4035178650570919	0.29281192963369185	0.19891644517804677	0.35889221339221133	0.40456856770708377	0.3726643333911825	0.45483196160479117	0.5964786641705359	0.43881584694935405	0.5100475618543309	0.8757176499831968	0.5140449743010433	0.4037839011028183	1.0792794519364215	0.4935435155100323	0.28348554136913484	1.1661877349026002	0.5394867603930319	0.304681213608825	1.1920929382912906	0.5278051316086307	0.40270004635879464	1.2093760784356307	0.07337157284360732	0.4631528335658836	0.6105737326724621	-0.0016083883091906144	0.5184803845007883	0.8568003387469381	-0.08783638859881152	0.44027809277543917	1.0594873744052586	-0.05987548875701983	0.33891350676687376	1.1347652266019717	-0.09756159582771917	0.3060010473629305	1.135293165074192	-0.12201946231091479	0.3979717284770204	1.166230222684277
38	0.6440677966101694	0.3317240034263547	0.4572139851803778	1.0572400425929995	0.33118524170787667	0.5046142117273346	1.5100011958120274	0.32805424977509634	0.5407065199277282	1.9318040922295183	0.3150817014111466	0.35395137786339675	1.9322131221511363	0.3766542922408163	0.35718411843053777	1.9207110663095521	0.30742544786113374	0.6174321017000908	2.014930382154704	0.12455959330993906	0.47929174417400816	1.0705134037149049	0.12812485597147763	0.5112282866297924	1.4999657289481554	0.11875925648654491	0.5158342661704212	1.9438777435382828	0.14122559966682788	0.3129026581089855	1.9071377947134027	0.08134829826039607	0.3780454749005178	1.9424971750768318	0.1255339451639178	0.571380847032158	2.0040736907269996	0.2098778667852747	0.4794356604516394	0.5253914900633522	0.2073578264519412	0.40414999335410573	0.296030837820796	0.19881227137987184	0.3587906051127195	0.4048730251830268	0.372659606375386	0.4547732218190793	0.5964375089587081	0.43874690745404815	0.5098769645574402	0.875556978884877	0.5245785932023062	0.36183752026448773	1.0595538615607285	0.5142141030633041	0.26239766849849105	1.150212689243856	0.5472141105406295	0.292544027461779	1.1828371376627511	0.5437819567130856	0.34245426132990653	1.2011998635074719	0.07337394941247156	0.4631807718819792	0.6104601355771894	-0.0012446600488772049	0.5198129984108399	0.8491207825219705	-0.09551235604521441	0.44056703725846097	1.0468792106032716	-0.071010392944796	0.3175397045045318	1.126422176463016	-0.12066408947231458	0.33893222347887286	1.1411698353016937	-0.12301728241615557	0.39856051520918656	1.1622862317309774
39	0.6610169491525424	0.31972816726878517	0.4577426569197595	1.0578376509698466	0.3311375784637361	0.5046630928378789	1.5099970433545045	0.32786092317549514	0.5408442682787151	1.9319476914807352	0.31805755296301186	0.36697661770550793	1.9358402706553155	0.3767070852343575	0.35740960094018376	1.920803517232649	0.30669057177307785	0.6189433683217146	2.0118841258855964	0.1158268589066413	0.491300125799389	1.0792156464515836	0.12814523867602323	0.5111467981876123	1.5000012792032578	0.11871117112385765	0.5160453579557175	1.944066682534891	0.14129536180853283	0.3128919501781149	1.906999582728429	0.08131527822868591	0.37797617096061	1.942407239069936	0.12550213808315996	0.571426268484512	2.004126059266037	0.21731238140070885	0.47791643307970233	0.5217239638456065	0.19936369787027242	0.41335366053240424	0.29704112483887796	0.19873937046262163	0.35890655919151465	0.40483507616298453	0.37264884599195036	0.45489826787249976	0.5964236399287088	0.43434114462584295	0.5075815308179551	0.8749617186434864	0.5276093886442077	0.3638937789684277	1.0517494257524864	0.5393591879306143	0.281215535437355	1.1381990466676162	0.5578901889102409	0.2920461642209063	1.1630749287462985	0.5527141424286899	0.31928041538524154	1.1742909748469506	0.07359966846041727	0.46364679306232753	0.607212323132876	-0.0011652002162785649	0.5195278856002188	0.8487358148870365	-0.103691368841019	0.4417484758788301	1.045550889703253	-0.08222985556943119	0.3146523231401802	1.114547878738251	-0.14466668577675842	0.35884925606695295	1.1445101958466601	-0.14188056211340436	0.38943952935059	1.1548361393025661
40	0.6779661016949152	0.31516322021524196	0.45536725000267414	1.0570494473219123	0.3261753580696035	0.4918330096135875	1.4994079420293116	0.32787394679486587	0.540770533188545	1.9316755081636872	0.3146586308834878	0.3556148072917212	1.928676179809117	0.37663401762897125	0.35693043777243005	1.920733893882667	0.3080077177094335	0.619031150403937	2.005957543142374	0.11526135509874595	0.49003284916017553	1.0742540276926902	0.12522711744221499	0.508943173409731	1.4945690441023916	0.11793188854882264	0.5143775436196026	1.937929524572979	0.1414433777014443	0.31283469937080827	1.9069054192427646	0.08140537696516817	0.3778733614913573	1.9423852016164924	0.12552983800641088	0.5715502350249522	2.0039054356452173	0.21730763344210838	0.4778313387376038	0.5218108963332934	0.19930215537314383	0.41325634254772076	0.2971763550439057	0.19872137821865918	0.35879087706622986	0.4047658173815847	0.37256008621445225	0.4547997832422506	0.5964753268532571	0.43805643858600735	0.5088390623195935	0.871818456508558	0.5334336657894322	0.3372841504825105	1.0339915140239835	0.5536606371408137	0.2138719494761562	1.1105170465475451	0.5718690308252754	0.2402413340106583	1.1371213463478649	0.5568899644487717	0.32891712711658433	1.1718083666038572	0.07365511631067671	0.46391392692444583	0.6071300925885904	-0.0016483049822821716	0.5205944912219591	0.8457315161528278	-0.11139169566900536	0.4169904462255085	1.0280899775824537	-0.1043653660445275	0.33068963792783707	1.111225830684803	-0.14610809949699408	0.3475409717763085	1.130243426092594	-0.14617138666431423	0.3867384165354698	1.1503350721055747
